<svg width="118" height="98" viewBox="0 0 118 98" fill="none" xmlns="http://www.w3.org/2000/svg">
<path d="M107.322 55.5156L99.4367 76.6634H89.091L81.0184 55.5156H107.322Z" fill="#00AF7E"/>
<path d="M107.321 23.7937L99.4365 44.9415H61.55L53.6563 23.7937H107.321Z" fill="#00AF7E"/>
<path d="M102.216 97.8108L81.2795 97.8018L61.5496 44.9413L53.6558 23.7935L45.771 44.9413L26.0321 97.8108H5.08636L25.2544 44.9413L33.3269 23.7935L42.4007 0H64.9109L73.9937 23.7935L82.0573 44.9413L102.216 97.8108Z" fill="#0B0F14"/>
<path d="M53.6561 23.7937L45.7713 44.9415H7.89376L0 23.7937H53.6561Z" fill="#00AF7E"/>
<path d="M65.4923 55.5156L73.3861 76.6634H7.89377L0 55.5156H65.4923Z" fill="#00AF7E"/>
<path d="M112.445 98.0001C110.989 98.0001 109.773 97.5021 108.771 96.5071C107.788 95.4985 107.289 94.2738 107.289 92.8213C107.289 91.3687 107.783 90.1449 108.771 89.1499C109.773 88.1404 110.989 87.6433 112.445 87.6433C113.901 87.6433 115.116 88.1404 116.105 89.1499C117.106 90.1404 117.601 91.3687 117.601 92.8213C117.601 94.2738 117.106 95.4985 116.105 96.5071C115.116 97.5021 113.901 98.0001 112.445 98.0001ZM115.544 95.9821C116.385 95.1212 116.796 94.0721 116.796 92.8213C116.796 91.5705 116.382 90.5214 115.544 89.6695C114.706 88.8176 113.674 88.3781 112.445 88.3781C111.216 88.3781 110.187 88.8086 109.345 89.6695C108.504 90.5304 108.093 91.566 108.093 92.8213C108.093 94.0766 108.507 95.1212 109.345 95.9821C109.749 96.3962 110.231 96.7231 110.764 96.9428C111.297 97.1625 111.869 97.2704 112.445 97.2599C113.674 97.2599 114.702 96.8295 115.544 95.9821ZM113.021 93.0167H111.446V95.3481H110.563V90.0351H112.639C113.96 90.0351 114.62 90.4916 114.62 91.4048C114.62 92.0783 114.294 92.5031 113.642 92.679C114.198 92.8069 114.476 93.1752 114.477 93.7839V94.2162C114.477 94.4089 114.505 94.5368 114.56 94.6007C114.616 94.6646 114.747 94.697 114.955 94.697H115.049V95.3463H114.5C113.896 95.3463 113.594 95.09 113.594 94.5773V93.5696C113.594 93.2016 113.403 93.0173 113.021 93.0167ZM112.615 90.7339H111.446V92.4169H112.687C113.356 92.4169 113.69 92.1207 113.689 91.5281C113.689 90.9992 113.331 90.7345 112.615 90.7339Z" fill="#0B0F14"/>
</svg>
