<svg xmlns="http://www.w3.org/2000/svg" xmlns:xlink="http://www.w3.org/1999/xlink" viewBox="0 0 45.02 45.01">
  <defs>
    <radialGradient id="a" cx="-911.58" cy="42.38" r="1" gradientTransform="translate(20525.25 -933.8) scale(22.49 22.51)" gradientUnits="userSpaceOnUse">
      <stop offset="0.5" stop-color="#fff" stop-opacity="0"/>
      <stop offset="1" stop-color="#fff" stop-opacity="0.35"/>
    </radialGradient>
  </defs>
  <title>beeline</title>
  <g>
    <path d="M22.5,45A22.5,22.5,0,1,0,0,22.5,22.5,22.5,0,0,0,22.5,45Z" transform="translate(0.02)" fill="#ffc800"/>
    <path d="M32.18,39.26c-7.64,4.41-15.92,5.2-21.22,2.56A22.5,22.5,0,0,0,45,22.16C44.64,28.07,39.82,34.85,32.18,39.26Z" transform="translate(0.02)"/>
    <path d="M25.35,1.65C26.9,4.33,23.15,9.39,17,13S4.57,17.22,3,14.54a2.46,2.46,0,0,1-.17-.41c-.4-1.25.08-2.86,1.23-4.57q.28-.4.58-.79A22.58,22.58,0,0,1,19.54.19q.5-.07,1-.1c2-.15,3.69.24,4.57,1.21A2.9,2.9,0,0,1,25.35,1.65Z" transform="translate(0.02)"/>
    <path d="M34.91,4.55c2.7,4.68-2.75,12.89-12.18,18.34S3.45,29,.75,24.28A5.71,5.71,0,0,1,0,21.69a22.28,22.28,0,0,0,1.7,9.39c.19.45.39.9.61,1.35v.06a8.74,8.74,0,0,0,3.52,3.32c5.29,2.83,14.24,1.86,22.61-3S42.15,20.74,42.35,14.75a8.73,8.73,0,0,0-1.1-4.7,12.6,12.6,0,0,0-1-1.34A22.34,22.34,0,0,0,33,2.64a5.65,5.65,0,0,1,1.83,1.91h0Z" transform="translate(0.02)"/>
    <path d="M22.5,45A22.5,22.5,0,1,0,0,22.5,22.5,22.5,0,0,0,22.5,45Z" transform="translate(0.02)" fill="url(#a)"/>
  </g>
</svg>
